<svg xmlns="http://www.w3.org/2000/svg" viewBox="0 0 24 24" fill="none">
  <rect width="24" height="24" rx="5" fill="#09090b" />
  <path d="M4 22h16a2 2 0 0 0 2-2V4a2 2 0 0 0-2-2H8a2 2 0 0 0-2 2v16a2 2 0 0 1-2 2Zm0 0a2 2 0 0 1-2-2v-9c0-1.1.9-2 2-2h2" stroke="#ffffff" stroke-width="2" stroke-linecap="round" stroke-linejoin="round" />
  <path d="M18 14h-8" stroke="#ffffff" stroke-width="2" stroke-linecap="round" stroke-linejoin="round" />
  <path d="M15 18h-5" stroke="#ffffff" stroke-width="2" stroke-linecap="round" stroke-linejoin="round" />
  <path d="M10 6h8v4h-8V6Z" stroke="#ffffff" stroke-width="2" stroke-linecap="round" stroke-linejoin="round" />
</svg>